<svg width="31" height="30" viewBox="0 0 31 30" fill="none" xmlns="http://www.w3.org/2000/svg">
<path d="M23.5098 30H7.334C3.50657 30 0.405518 26.885 0.405518 23.0576V12.7067C0.405518 10.8069 1.57889 8.41829 3.08751 7.24492L10.6166 1.37806C12.8796 -0.381992 16.4975 -0.465804 18.8442 1.1825L27.4769 7.23095C29.1392 8.39036 30.4383 10.8768 30.4383 12.9023V23.0715C30.4383 26.885 27.3372 30 23.5098 30ZM11.9018 3.02637L4.37263 8.89323C3.38085 9.67548 2.50082 11.4495 2.50082 12.7067V23.0576C2.50082 25.7256 4.66598 27.9047 7.334 27.9047H23.5098C26.1778 27.9047 28.3429 25.7395 28.3429 23.0715V12.9023C28.3429 11.5613 27.3791 9.70341 26.2756 8.9491L17.6429 2.90065C16.0505 1.78315 13.4244 1.83903 11.9018 3.02637Z" fill="#47464B"/>
</svg>
